<svg width="388" height="82" viewBox="0 0 388 82" fill="none" xmlns="http://www.w3.org/2000/svg">
<path d="M0.614014 41.3019C0.614014 63.6824 18.9347 81.8889 41.4442 81.8889C63.9537 81.8889 82.2744 63.6824 82.2744 41.3019C82.2744 18.9215 63.9726 0.703735 41.4442 0.703735C18.9158 0.703735 0.614014 18.9103 0.614014 41.3019ZM2.02417 41.3019C2.02417 19.6807 19.7135 2.09877 41.4442 2.09877C63.1749 2.09877 80.8756 19.677 80.8756 41.3019C80.8756 62.9269 63.2014 80.4864 41.4442 80.4864C19.687 80.4864 2.02417 62.9082 2.02417 41.3019ZM13.3356 30.1678C23.7776 23.3647 35.3197 19.404 54.8879 22.77C55.9692 22.1529 56.5589 21.5657 56.8387 20.2904C51.9504 18.5438 46.6576 17.9266 39.8034 18.0463C33.6449 18.2184 22.564 20.4923 16.6436 23.9706L18.447 21.7265C22.5867 19.3179 33.3727 16.1165 41.4518 15.9482C47.1567 15.8434 50.1206 16.1613 56.8916 17.9753C56.3019 16.8159 54.8879 16.2436 52.8464 15.3273C46.2833 12.3989 34.0267 12.1296 23.9893 16.5241C25.3027 15.6316 26.6857 14.8438 28.1252 14.1679C31.4332 12.6719 36.8508 11.2058 43.6256 11.3217C49.0356 11.4077 55.4588 13.2853 59.3982 17.1637C59.9613 17.8142 60.3707 18.5808 60.5966 19.4077C63.7156 20.971 65.5113 22.4409 66.5396 24.18C66.9811 25.0969 67.1212 26.1275 66.9404 27.1272C67.9522 27.6852 68.8243 28.4611 69.4923 29.3974C69.9577 30.0689 70.2627 30.8362 70.3845 31.6414C70.5206 32.6176 70.6264 33.7059 69.6057 34.985C70.6756 35.4974 71.496 36.9635 71.6396 37.603C72.1311 39.9406 70.6264 42.2108 68.6152 43.9611C66.3468 45.962 61.2695 48.3332 57.1525 49.3767C48.9713 51.4262 41.7504 52.2902 36.0002 53.3411C39.8528 54.3287 43.8196 54.8128 47.7993 54.7811C59.9993 54.7811 70.789 49.0438 70.789 49.0438C70.789 49.0438 70.5433 49.7918 70.3051 50.4576C62.5625 55.1102 50.2114 57.0812 44.9753 56.8418C40.1417 56.6611 35.3521 55.8616 30.7263 54.4632C29.3709 54.8018 28.0458 55.2496 26.7642 55.8021C33.4672 58.8353 38.5256 59.516 44.2607 59.9162C50.0979 60.3463 59.7611 58.9437 67.9422 56.0041C67.5642 56.3781 67.3789 56.969 66.9971 57.3131C62.8196 59.4823 53.973 61.6814 49.5346 61.8647C45.0962 62.048 39.7051 61.8647 35.0399 60.997C30.9909 60.2191 27.7132 58.9437 24.2691 57.4515C23.9849 57.6503 23.7447 57.9044 23.5633 58.1983C23.3819 58.4923 23.2632 58.8197 23.2143 59.1607C36.6504 66.1396 49.2511 66.2929 63.5719 61.8722L62.26 63.1625C46.4913 69.5206 34.1553 67.0447 24.6169 62.4706C24.2829 62.3389 23.9594 62.1827 23.649 62.0031C24.5261 63.5328 31.8226 68.8249 39.9622 69.4832C45.5877 69.9432 52.4381 68.982 56.5098 67.3701L54.1318 68.608C49.6132 70.7211 44.6173 71.6374 39.6333 71.2672C29.9097 70.6164 24.4354 66.3453 21.978 64.1013C20.8439 63.0578 20.3032 61.8385 19.963 60.3612C17.7627 59.2093 16.379 58.0312 15.2373 56.2472C14.5568 55.2037 14.6929 54.0405 14.8592 53.0569C14.9066 52.7563 14.9904 52.4625 15.1087 52.1817C14.054 51.4337 12.9878 50.6072 12.5266 49.7806C11.5663 48.0602 12.1485 46.5829 12.8253 45.4347C12.2572 44.8656 11.7986 44.199 11.4718 43.4674C11.2309 42.696 11.1524 41.8839 11.2412 41.0813C11.488 39.609 12.1708 38.2423 13.2033 37.1542C15.3582 34.7382 18.6776 32.8307 24.4316 30.9457C30.0231 29.1056 32.2839 28.8326 36.5068 27.8527C41.4215 26.7307 47.3419 26.3567 52.2831 24.6363C38.518 22.2314 24.2199 24.4156 12.5644 32.3931L13.3356 30.1678ZM60.2147 21.734C60.0446 22.4072 59.3112 23.1814 58.8084 23.7162C60.3207 24.1337 61.8087 24.6332 63.2657 25.2123C63.0956 23.892 61.5417 22.5942 60.2147 21.749M17.8118 49.07C17.0432 48.6598 16.2974 48.2091 15.5775 47.7199C15.173 48.5838 15.9291 49.5375 16.7344 49.9975C17.0746 49.6572 17.4678 49.3804 17.8118 49.07ZM64.2108 31.1851C65.1638 31.5973 66.0827 32.0825 66.9593 32.6362C67.5869 31.4581 67.2013 30.6839 65.9007 29.5956C65.3961 30.1834 64.8296 30.7162 64.2108 31.1851ZM61.2695 32.9803C59.262 33.9041 56.3737 34.8504 52.2453 35.8976C48.8693 36.7391 40.6125 37.9135 31.7508 39.8321C28.9305 40.4342 21.3467 42.2183 17.6266 45.3749C18.6663 46.2051 19.3089 46.4146 20.4734 47.0541C22.0272 46.0668 24.1141 45.1392 27.2368 44.3127C32.6808 42.8728 36.7336 42.2444 41.6257 41.474C46.5177 40.7035 55.6138 38.8223 60.6798 37.0196C62.2271 36.4932 63.6842 35.7365 65.001 34.7756C64.6494 34.4016 61.3981 32.827 61.2884 32.9729M22.9723 54.0218C23.8297 53.5219 24.726 53.0904 25.6528 52.7315C24.235 52.1481 22.7833 51.5123 21.3051 50.8391C20.683 51.2127 20.1015 51.6489 19.5698 52.1406C20.704 52.7876 21.8382 53.4234 22.9723 54.0106M18.2958 54.4706C18.2731 55.372 18.825 56.1798 20.0424 57.1672C20.2009 56.6874 20.4483 56.2409 20.772 55.8507C19.9252 55.4281 19.0972 54.9568 18.2958 54.4706ZM25.1651 37.7676C35.1306 34.8653 45.5802 33.9677 56.1658 31.1739C52.0298 30.0519 49.7652 29.5956 45.3873 30.1005C38.8552 30.8747 32.3979 32.1756 26.08 33.9901C23.7398 34.6933 11.3924 38.1603 14.9537 43.0261C14.9537 43.0934 17.0671 40.1388 25.1613 37.79M62.5285 27.6321C60.6479 26.8139 58.7065 26.14 56.7215 25.6162C55.6107 26.4917 54.3666 27.1872 53.0354 27.677C55.7234 28.1519 57.7423 28.8887 59.9993 29.547C60.4076 29.7489 62.2411 28.051 62.5285 27.6433M67.4432 37.1692C67.137 37.4347 66.8081 37.6816 66.4376 37.9583C64.1692 39.69 60.6193 41.0701 55.6743 42.3791C45.4214 45.1205 37.9812 45.5245 29.5127 47.5777C27.8196 47.9907 26.1592 48.5257 24.545 49.1785C26.1404 49.9714 27.8417 50.7082 29.5845 51.3701C32.8839 50.3832 36.2494 49.6271 39.656 49.1074C41.5463 48.782 47.3948 47.7685 51.6215 46.8634C59.2469 45.2477 70.4147 41.747 67.4432 37.1393" fill="#2355D7"/>
<path d="M121.392 59.0185H129.815L130.836 52.8811H136.628L137.645 59.0185H146.064L138.956 23.4881H128.507L121.392 59.0185ZM133.728 34.2183L135.297 45.0644H132.178L133.728 34.2183ZM153.992 37.6517C155.334 37.6517 157.81 36.7914 157.81 34.1771C157.81 31.0804 154.96 30.8709 154.158 30.8709C152.58 30.8777 151.021 31.2195 149.587 31.8733L149.527 24.1875C151.88 23.5498 154.312 23.2402 156.752 23.2674C163.526 23.2674 166.581 27.9911 166.581 32.5876C166.581 37.0757 163.935 39.8134 161.451 40.8569V41.2047C163.852 41.9527 167.122 44.2828 167.122 49.7283C167.122 56.4229 162.407 60.1293 156.396 60.1293C153.153 60.1293 151.062 59.6581 148.544 58.2817L148.684 50.9026C150.41 51.6744 152.292 52.0429 154.185 51.9798C156.85 51.9798 157.92 50.0462 157.92 48.6137C157.92 46.6165 156.646 45.2813 153.818 45.2813H150.415V37.6517H153.992ZM171.023 23.4881H193.654V59.0185H185.363V32.0453H179.314V59.026H171.023V23.4881ZM198.391 59.0185H206.708V47.3084H209.491C217.713 47.3084 220.235 39.9705 220.235 35.3179C220.235 30.6652 217.328 23.4881 209.475 23.518H198.391V59.0185ZM206.708 31.316H208.682C210.572 31.316 211.744 32.438 211.744 35.3777C211.744 39.2262 209.751 39.4918 208.682 39.4918H206.693L206.708 31.316ZM235.595 59.4561C245.425 59.4561 248.752 50.3341 248.752 41.2159C248.752 32.0977 245.429 22.9757 235.595 22.9757C225.762 22.9757 222.45 32.0939 222.45 41.2159C222.45 50.3379 225.766 59.4561 235.595 59.4561ZM235.595 50.854C232.684 50.854 231.168 47.4618 231.168 41.2047C231.168 34.9476 232.681 31.5516 235.595 31.5516C238.51 31.5516 240.026 34.9401 240.026 41.2047C240.026 47.4693 238.514 50.854 235.595 50.854ZM284.875 59.0073H294.784C296.931 59.0073 305.899 58.1247 305.918 47.3758C305.918 38.2875 298.965 36.7129 294.467 36.7129H293.003V32.0229H303.967V23.4881H284.86L284.875 59.0073ZM293.003 51.9012V43.8227H294.209C295.181 43.8227 297.801 43.8751 297.801 47.5254C297.801 51.2654 295.181 51.9012 294.209 51.9012H293.003ZM335.773 23.4769H343.89V36.2828H349.686V23.4881H357.795V59.0185H349.678V44.8064H343.89V59.0185H335.758L335.773 23.4769ZM363.258 23.4769H371.379V36.2678H373.14L377.798 23.4769H386.61L380.255 40.3482L387.48 59.0111H377.938L373.276 44.7241H371.348V59.0111H363.243L363.258 23.4769ZM105.336 23.518H122.348V32.3857H113.789V59.0485H105.34L105.336 23.518ZM252.71 23.518H259.757L265.976 31.8845L272.241 23.518H279.269V59.0485H270.982V37.3562L265.98 43.5796L261.008 37.3562V59.0485H252.714L252.71 23.518ZM307.528 59.1046H315.948L316.965 52.9597H322.757L323.781 59.1046H332.197L325.085 23.5741H314.632L307.528 59.1046ZM319.864 34.3006L321.433 45.1467H318.292L319.864 34.3006Z" fill="#2355D7"/>
</svg>
