<svg width="1984" height="248" viewBox="0 0 1984 248" fill="none" xmlns="http://www.w3.org/2000/svg">
<path d="M0 66H1803L1797 73H0V66Z" fill="#989A99"/>
<path d="M0 225H1731L1725.24 232H0V225Z" fill="#989A99"/>
<path d="M0 241H1805L1798.99 248H0V241Z" fill="#989A99"/>
<path d="M0 82H1791L1785.04 89H0V82Z" fill="#989A99"/>
<path d="M1943.5 89.5777H1912L1917 82.0777H1941C1943.5 82.0777 1946.25 78.0777 1946.5 77.0777C1947 75.0777 1948 72.0777 1945 69.5777C1942.42 67.4305 1939.5 68.5777 1938 70.5777C1937.05 71.8426 1938.5 75.5777 1934 75.5777C1931.45 75.5777 1930.5 73.5777 1930 71.5777C1929.55 69.7587 1929.94 66.6393 1932 64.5777C1934 62.5777 1938 60.5777 1942.5 61.0777C1947 61.5777 1950 62.5777 1953 67.5777C1955.1 71.0777 1955.31 78.7753 1953 82.0777C1949.5 87.0777 1946.5 88.5777 1943.5 89.5777Z" fill="#989A99"/>
<path fill-rule="evenodd" clip-rule="evenodd" d="M1956.99 0.894728L1950.02 1.36921C1940.38 2.47162 1928.82 6.23226 1921.73 11.5234L1907.89 23.0381L1910.66 15.5219L1907.61 16.3501L1900.35 18.9467C1899.47 19.5405 1891.19 22.7048 1889.27 23.4652C1884.61 25.3137 1882.45 26.7351 1879.02 28.5447C1877.28 30.6199 1875.62 31.612 1873.55 34.5419C1870.51 38.8488 1864.97 54.0161 1862.59 56.0847L1869.16 33.4699L1863.82 40.8019C1862.8 42.4169 1862.37 42.2509 1861.84 44.1823C1860.99 47.2794 1860.76 52.5478 1857.85 55.3962C1857.59 51.2031 1858.44 47.8543 1857.48 43.6642C1857.2 44.1747 1857.02 44.6569 1856.7 45.1608C1854.13 49.1812 1851.02 58.1674 1848.97 63.0835L1847.19 67.1548C1846.77 67.8131 1846.77 67.7514 1846.39 68.1091L1846.12 66.6613C1846.14 64.5276 1849.24 51.5494 1848.43 45.7188C1844.69 47.1054 1832.2 56.9473 1828.25 59.74C1826.18 61.2349 1824.04 62.9302 1821.9 64.3362C1817.36 67.3283 1812.95 70.5647 1808.17 73.6334C1801.75 77.7589 1799.15 83.6538 1797.76 84.8732L1795.34 90.8181C1792.4 97.9366 1791.68 105.254 1790.26 113.047C1787.99 108.371 1791.12 95.6251 1788.65 91.1106C1787.3 100.13 1786.08 113.79 1786.2 122.899L1784.83 103.293C1783.89 104.242 1784.44 103.018 1783.95 104.931L1783.15 110.601C1781.89 107.685 1780.91 104.447 1780.74 101.063L1779.99 98.2463C1772.34 109.3 1779.62 129.729 1778.9 142.002C1775.69 135.889 1774.12 121.149 1772.24 113.504C1772.11 111.121 1771.35 109.426 1771.86 107.031C1771.14 107.756 1771.55 107.047 1771.11 108.21C1770.7 109.302 1771.06 108.086 1770.87 109.141C1770.77 109.678 1770.79 111.422 1770.77 112.04C1770.57 119.054 1771.76 127.54 1772.87 134.541C1773.91 141.121 1777.3 149.637 1777.08 155.873C1776.14 154.161 1766.65 115.673 1766.79 113.9L1765.55 113.849C1765.51 118.368 1764.13 122.79 1763.93 127.836C1763.66 134.931 1764.83 142.091 1766.69 148.889C1767.82 150.338 1770.47 158.502 1770.13 160.466C1770.95 161.255 1770.12 165.333 1770.26 167.111C1770.57 171.148 1758.91 198.77 1753.32 209.088L1760.91 211.15C1762.24 203.129 1772.86 178.951 1776.09 172.062C1776.65 170.798 1777.19 170.042 1777.86 168.917C1778.94 167.106 1780.8 163.924 1781.96 162.26C1782.33 161.726 1782.34 161.725 1782.71 161.335C1783.22 160.791 1783.24 160.841 1783.71 160.514C1784.04 158.97 1789.86 150.762 1791.25 149.689C1792.36 146.824 1802.72 134.494 1804.96 132.364C1816.77 118.689 1823.38 113.594 1835.1 102.259C1865.96 74.8149 1891.65 49.8161 1928 28.114L1937.49 22.9574C1935.74 23.889 1933.64 25.4885 1931.62 26.7316C1919.2 36.1713 1861.96 78.0107 1854.18 89.3797C1862.37 89.5825 1890.16 85.6296 1893.57 82.4983L1883.51 81.2692C1893.61 79.954 1897 82.9931 1911.92 73.5292C1916.09 71.4047 1933.52 57.2798 1933.71 54.2561C1933.22 54.2489 1932.06 54.3065 1931.74 54.2866L1930.56 54.0983C1930.52 53.9869 1930.32 54.0481 1930.16 53.9741L1934 49.6693L1936.35 46.0356L1934.97 46.1031L1923.86 46.5767C1925.26 45.2637 1930.69 44.8954 1932.7 44.32C1951.8 38.8195 1955.47 30.2795 1970.25 16.2487C1972.35 14.2571 1974.08 13.2177 1975.5 11.0417C1973.15 10.8924 1971.25 11.0679 1969.25 10.2569C1970.07 9.20564 1969.27 9.96855 1970.54 9.24307C1975.12 6.61758 1977.14 4.63226 1977.74 4.34599L1977.71 2.79659L1963.83 5.30249C1966.58 4.49035 1968.02 3.28695 1971.25 3.17287C1969.8 1.92861 1971.7 2.95454 1969.7 2.46432C1969.51 2.42009 1968.33 2.34586 1968.1 2.34806C1967.46 2.35275 1965.92 2.58787 1965.11 2.65422C1956.45 3.56886 1951.74 5.23174 1944.5 7.81854C1947.71 4.86487 1957.15 1.48677 1963.27 0.68861L1956.99 0.894728ZM1749.8 231.248C1751.08 229.345 1754.05 227.42 1756.67 226.589C1756.74 226.491 1758.18 224.426 1758.22 224.36L1758.59 220.85C1759.07 218.078 1759.18 213.889 1761.01 212.038L1761 211.859L1753.32 210.09C1751.35 211.253 1749.39 212.418 1748.24 214.228C1747.09 216.038 1746.76 218.496 1747.16 221.441C1747.55 224.385 1748.68 227.818 1749.8 231.248ZM1753.22 216.853C1754.24 216.857 1755.06 217.685 1755.05 218.702C1755.05 219.721 1754.22 220.544 1753.2 220.54C1752.19 220.536 1751.36 219.707 1751.37 218.69C1751.37 217.671 1752.2 216.849 1753.22 216.853ZM1809.58 153.079C1805.92 154.142 1800.86 154.776 1796.94 155.631C1794.65 156.13 1792.32 156.353 1791.04 157.583C1788.34 160.175 1783.84 170.389 1781.06 172.43C1781.72 174.014 1780.07 173.865 1784.15 173.192C1785.86 172.911 1786.39 172.643 1788.34 172.46C1799.95 169.766 1823.15 163.335 1829.92 150.551L1828.2 150.78C1827.63 151.216 1827.91 151.053 1827.08 151.462L1824.15 152.432C1822.57 152.82 1821.49 153.015 1819.9 153.161C1820.71 152.271 1822.86 150.998 1823.97 150.274L1809.58 153.079ZM1793.73 154.228L1810.2 150.534L1824.19 146.123C1827.45 144.24 1831.33 143.781 1834.68 141.261C1837.13 139.418 1842.15 135.798 1843.41 134.145C1841.55 132.887 1839.66 133.083 1837.57 132.1C1847.12 131.477 1847.04 131.618 1852.1 126.514C1862.17 116.348 1870.39 108.782 1880.47 99.4715C1881.39 98.6238 1881.98 98.1516 1883.07 97.1426C1884.36 95.9514 1884.08 95.6797 1885.68 94.7541L1887.6 92.4162L1880.29 92.0513C1881.25 91.6911 1883.14 90.2399 1883.89 89.544C1879.5 88.4168 1860.63 90.4497 1855.45 91.1594C1847.2 92.2862 1843.91 96.8947 1838.11 102.937C1832.69 108.686 1797.64 144.583 1793.73 154.228Z" fill="#989A99"/>
<path d="M1738.84 228.388C1741.53 230.262 1744.22 232.135 1748.41 232.897C1752.59 233.657 1758.27 233.307 1765.09 231.316C1771.91 229.325 1779.87 225.696 1788.39 223.911C1796.91 222.124 1805.98 222.183 1813.86 222.651C1821.73 223.12 1828.4 223.998 1835.34 226.018C1842.28 228.038 1849.48 231.198 1854.92 234.419C1860.37 237.638 1864.06 240.916 1868.27 242.789C1872.49 244.663 1877.23 245.131 1882.44 244.488C1887.65 243.843 1893.33 242.087 1896.69 241.115C1900.05 240.143 1901.09 239.955 1902.13 239.767" stroke="#989A99" stroke-width="5" stroke-miterlimit="22.9256" stroke-linecap="round"/>
</svg>
